<svg xmlns="http://www.w3.org/2000/svg" xmlns:svg="http://www.w3.org/2000/svg" id="svg14" width="16" height="16" version="1.1" viewBox="0 0 16 16"><metadata id="metadata18"/><g id="Icons" fill="none" fill-rule="evenodd" stroke="none" stroke-width="1" transform="translate(0,1)"><g id="Artboard" stroke="#5e5e5e" transform="translate(-186,-402)"><g id="shapes" transform="translate(186,402)"><path id="path819" fill="#666" fill-opacity="1" fill-rule="nonzero" stroke="none" stroke-dasharray="none" stroke-dashoffset="0" stroke-linecap="butt" stroke-linejoin="miter" stroke-miterlimit="4" stroke-opacity="1" stroke-width="1" d="M 8,1 C 4.6922138,1 2,3.6922138 2,7 c 0,3.307786 2.6922138,6 6,6 3.307786,0 6,-2.692214 6,-6 C 14,3.6922138 11.307786,1 8,1 Z m 0,1 c 2.767346,0 5,2.2326539 5,5 0,2.7673461 -2.232654,5 -5,5 C 5.2326539,12 3,9.7673461 3,7 3,4.2326539 5.2326539,2 8,2 Z" baseline-shift="baseline" clip-rule="nonzero" color="#000" color-interpolation="sRGB" color-interpolation-filters="linearRGB" color-rendering="auto" direction="ltr" display="inline" dominant-baseline="auto" enable-background="accumulate" font-family="sans-serif" font-size="medium" font-stretch="normal" font-style="normal" font-variant="normal" font-weight="normal" image-rendering="auto" letter-spacing="normal" opacity="1" overflow="visible" shape-rendering="auto" text-anchor="start" text-decoration="none" text-rendering="auto" vector-effect="none" visibility="visible" word-spacing="normal" writing-mode="lr-tb" style="line-height:normal;font-variant-ligatures:normal;font-variant-position:normal;font-variant-caps:normal;font-variant-numeric:normal;font-variant-alternates:normal;font-feature-settings:normal;text-indent:0;text-align:start;text-decoration-line:none;text-decoration-style:solid;text-decoration-color:#000;text-transform:none;text-orientation:mixed;white-space:normal;shape-padding:0;isolation:auto;mix-blend-mode:normal;solid-color:#000;solid-opacity:1"/></g></g></g></svg>