<svg xmlns="http://www.w3.org/2000/svg" xmlns:svg="http://www.w3.org/2000/svg" id="svg38" width="16" height="16" version="1.1" viewBox="0 0 16 16"><metadata id="metadata42"/><title id="title2">group</title><desc id="desc4">Created with Sketch.</desc><defs id="defs10"><path id="path-1" d="M 0,0 H 4 V 4 H 0 Z M 1,1 V 3 H 3 V 1 Z"/><path id="path-2" d="m 0,16 h 4 v 4 H 0 Z m 1,1 v 2 h 2 v -2 z"/><path id="path-3" d="m 16,0 h 4 v 4 h -4 z m 1,1 v 2 h 2 V 1 Z"/><path id="path-4" d="m 16,16 h 4 v 4 h -4 z m 1,1 v 2 h 2 v -2 z"/></defs><path id="rect909" fill="#666" fill-opacity="1" fill-rule="nonzero" stroke="none" stroke-dasharray="none" stroke-dashoffset="0" stroke-linecap="butt" stroke-linejoin="miter" stroke-miterlimit="4" stroke-opacity="1" stroke-width="1" d="M 2,2 V 3 H 14 V 2 Z M 2,3 V 13 H 3 V 3 Z m 11,0 v 10 h 1 V 3 Z M 2,13 v 1 h 12 v -1 z" baseline-shift="baseline" clip-rule="nonzero" color="#000" color-interpolation="sRGB" color-interpolation-filters="linearRGB" color-rendering="auto" direction="ltr" display="inline" dominant-baseline="auto" enable-background="accumulate" font-family="sans-serif" font-size="medium" font-stretch="normal" font-style="normal" font-variant="normal" font-weight="normal" image-rendering="auto" letter-spacing="normal" opacity="1" overflow="visible" shape-rendering="auto" text-anchor="start" text-decoration="none" text-rendering="auto" vector-effect="none" visibility="visible" word-spacing="normal" writing-mode="lr-tb" style="line-height:normal;font-variant-ligatures:normal;font-variant-position:normal;font-variant-caps:normal;font-variant-numeric:normal;font-variant-alternates:normal;font-feature-settings:normal;text-indent:0;text-align:start;text-decoration-line:none;text-decoration-style:solid;text-decoration-color:#000;text-transform:none;text-orientation:mixed;white-space:normal;shape-padding:0;isolation:auto;mix-blend-mode:normal;solid-color:#000;solid-opacity:1"/><path id="rect915" fill="#666" fill-opacity=".353" fill-rule="nonzero" stroke="none" stroke-dasharray="none" stroke-dashoffset="0" stroke-linecap="butt" stroke-linejoin="miter" stroke-miterlimit="4" stroke-opacity="1" stroke-width="1" d="M 4 4 L 4 4.5 L 4 9 L 7 9 L 7 12 L 12 12 L 12 7 L 9 7 L 9 4 L 4 4 z M 5 5 L 8 5 L 8 7 L 7 7 L 7 7.5 L 7 8 L 5 8 L 5 5 z M 9 8 L 11 8 L 11 11 L 8 11 L 8 9 L 9 9 L 9 8 z" baseline-shift="baseline" clip-rule="nonzero" color="#000" color-interpolation="sRGB" color-interpolation-filters="linearRGB" color-rendering="auto" direction="ltr" display="inline" dominant-baseline="auto" enable-background="accumulate" font-family="sans-serif" font-size="medium" font-stretch="normal" font-style="normal" font-variant="normal" font-weight="normal" image-rendering="auto" letter-spacing="normal" opacity="1" overflow="visible" shape-rendering="auto" text-anchor="start" text-decoration="none" text-rendering="auto" vector-effect="none" visibility="visible" word-spacing="normal" writing-mode="lr-tb" style="line-height:normal;font-variant-ligatures:normal;font-variant-position:normal;font-variant-caps:normal;font-variant-numeric:normal;font-variant-alternates:normal;font-feature-settings:normal;text-indent:0;text-align:start;text-decoration-line:none;text-decoration-style:solid;text-decoration-color:#000;text-transform:none;text-orientation:mixed;white-space:normal;shape-padding:0;isolation:auto;mix-blend-mode:normal;solid-color:#000;solid-opacity:1"/><circle id="path823" cx="2.5" cy="2.5" r="1.5" fill="#666" fill-opacity="1" fill-rule="nonzero" stroke="none" stroke-dasharray="none" stroke-miterlimit="4" stroke-opacity="1" stroke-width="1" opacity="1"/><circle id="circle825" cx="13.5" cy="2.5" r="1.5" fill="#666" fill-opacity="1" fill-rule="nonzero" stroke="none" stroke-dasharray="none" stroke-miterlimit="4" stroke-opacity="1" stroke-width="1" opacity="1"/><circle id="circle827" cx="2.5" cy="13.5" r="1.5" fill="#666" fill-opacity="1" fill-rule="nonzero" stroke="none" stroke-dasharray="none" stroke-miterlimit="4" stroke-opacity="1" stroke-width="1" opacity="1"/><circle id="circle829" cx="13.5" cy="13.5" r="1.5" fill="#666" fill-opacity="1" fill-rule="nonzero" stroke="none" stroke-dasharray="none" stroke-miterlimit="4" stroke-opacity="1" stroke-width="1" opacity="1"/></svg>