<svg xmlns="http://www.w3.org/2000/svg" xmlns:svg="http://www.w3.org/2000/svg" xmlns:xlink="http://www.w3.org/1999/xlink" id="svg8" width="24" height="24" version="1.1" viewBox="0 0 6.35 6.35"><defs id="defs2"><filter id="filter911" width="1.048" height="1.048" x="-.024" y="-.024" color-interpolation-filters="sRGB"><feGaussianBlur id="feGaussianBlur913" stdDeviation=".048"/></filter><linearGradient id="linearGradient826" x1="3.175" x2="3.175" y1="290.915" y2="296.735" gradientTransform="matrix(1.0454545,0,0,1.0454546,-0.14431818,-13.355692)" gradientUnits="userSpaceOnUse" xlink:href="#linearGradient824"/><linearGradient id="linearGradient824"><stop id="stop820" offset="0" stop-color="#cd9ef7" stop-opacity="1"/><stop id="stop822" offset="1" stop-color="#7239b3" stop-opacity="1"/></linearGradient></defs><metadata id="metadata5"/><g id="layer1" transform="translate(0,-290.64998)"><rect id="rect818" width="6.085" height="6.085" x=".132" y="290.782" fill="url(#linearGradient826)" fill-opacity="1" fill-rule="nonzero" stroke="#783fb7" stroke-dasharray="none" stroke-miterlimit="4" stroke-opacity=".51" stroke-width=".265" opacity="1" rx=".529" ry=".529"/><path dominant-baseline="auto" style="line-height:normal;font-variant-ligatures:normal;font-variant-position:normal;font-variant-caps:normal;font-variant-numeric:normal;font-variant-alternates:normal;font-feature-settings:normal;text-indent:0;text-align:start;text-decoration-line:none;text-decoration-style:solid;text-decoration-color:#000;text-transform:none;text-orientation:mixed;white-space:normal;shape-padding:0;isolation:auto;mix-blend-mode:normal;solid-color:#000;solid-opacity:1" id="path828" fill="#000" fill-opacity=".196" fill-rule="evenodd" stroke="none" stroke-dasharray="none" stroke-dashoffset="0" stroke-linecap="butt" stroke-linejoin="miter" stroke-miterlimit="4" stroke-opacity="1" stroke-width=".265" d="m 0.79375028,291.4924 v 0.13023 0.002 1.19062 0.13281 0.13178 l -2e-7,3.175 h 1.32291662 2.116666 l 1.3229187,7e-5 1e-6,-3.175 v -1.58751 z m 0.26458342,0.26459 4.2333347,7e-5 v 1.05833 l -3.1750015,-7e-5 H 1.0583337 Z m 0,1.32292 h 0.7937499 l -2e-7,2.91041 H 1.0583335 Z m 1.0583332,0 h 2.1166668 l -1e-6,2.91041 h -2.116666 z m 2.3812498,0 0.7937517,7e-5 v 2.91041 l -0.7937517,-7e-5 z" baseline-shift="baseline" clip-rule="nonzero" color="#000" color-interpolation="sRGB" color-interpolation-filters="linearRGB" color-rendering="auto" direction="ltr" display="inline" enable-background="accumulate" filter="url(#filter911)" font-family="sans-serif" font-size="medium" font-stretch="normal" font-style="normal" font-variant="normal" font-weight="normal" image-rendering="auto" letter-spacing="normal" opacity="1" overflow="visible" shape-rendering="auto" text-anchor="start" text-decoration="none" text-rendering="auto" vector-effect="none" visibility="visible" word-spacing="normal" writing-mode="lr-tb"/><path id="Rectangle-8-3" fill="#fff" fill-opacity="1" fill-rule="evenodd" stroke="none" stroke-dasharray="none" stroke-dashoffset="0" stroke-linecap="butt" stroke-linejoin="miter" stroke-miterlimit="4" stroke-opacity="1" stroke-width=".265" d="m 0.79375032,291.44372 v 0.13023 0.002 1.19062 0.13281 0.13178 l -2e-7,3.175 h 1.32291658 2.116666 l 1.3229187,7e-5 1e-6,-3.175 v -1.58751 z m 0.26458338,0.26459 4.2333347,7e-5 v 1.05833 l -3.1750015,-7e-5 H 1.0583337 Z m 0,1.32292 h 0.7937499 l -2e-7,2.91041 H 1.0583335 Z m 1.0583332,0 h 2.1166668 l -1e-6,2.91041 h -2.116666 z m 2.3812498,0 0.7937517,7e-5 v 2.91041 l -0.7937517,-7e-5 z" baseline-shift="baseline" clip-rule="nonzero" color="#000" color-interpolation="sRGB" color-interpolation-filters="linearRGB" color-rendering="auto" direction="ltr" display="inline" dominant-baseline="auto" enable-background="accumulate" font-family="sans-serif" font-size="medium" font-stretch="normal" font-style="normal" font-variant="normal" font-weight="normal" image-rendering="auto" letter-spacing="normal" opacity="1" overflow="visible" shape-rendering="auto" text-anchor="start" text-decoration="none" text-rendering="auto" vector-effect="none" visibility="visible" word-spacing="normal" writing-mode="lr-tb" style="line-height:normal;font-variant-ligatures:normal;font-variant-position:normal;font-variant-caps:normal;font-variant-numeric:normal;font-variant-alternates:normal;font-feature-settings:normal;text-indent:0;text-align:start;text-decoration-line:none;text-decoration-style:solid;text-decoration-color:#000;text-transform:none;text-orientation:mixed;white-space:normal;shape-padding:0;isolation:auto;mix-blend-mode:normal;solid-color:#000;solid-opacity:1"/></g></svg>